<svg xmlns="http://www.w3.org/2000/svg" viewBox="0 0 512 512" width="512" height="512">
  <ellipse cx="256" cy="466" rx="150" ry="13" fill="#000" opacity="0.07"/>
  <ellipse cx="222" cy="454" rx="17" ry="8" fill="#FFA552"/>
  <ellipse cx="290" cy="454" rx="17" ry="8" fill="#FFA552"/>
  <path d="M256 152 Q250 120 232 112 M256 152 Q268 118 290 120" stroke="#F0C93A" stroke-width="9" fill="none" stroke-linecap="round"/>
  <path d="M66 312 C66 196 150 152 256 152 C362 152 446 196 446 312 C446 412 360 456 256 456 C152 456 66 412 66 312Z" fill="#FFE680" stroke="#F0C93A" stroke-width="6" stroke-linejoin="round"/>
  <ellipse cx="72" cy="338" rx="20" ry="30" fill="#FFDC5C" stroke="#F0C93A" stroke-width="5" transform="rotate(20 72 338)"/>
  <ellipse cx="440" cy="338" rx="20" ry="30" fill="#FFDC5C" stroke="#F0C93A" stroke-width="5" transform="rotate(-20 440 338)"/>
  <ellipse cx="146" cy="354" rx="22" ry="12" fill="#FFB6B6" opacity="0.7"/>
  <ellipse cx="366" cy="354" rx="22" ry="12" fill="#FFB6B6" opacity="0.7"/>
  <circle cx="198" cy="320" r="14" fill="#5A4630"/><circle cx="314" cy="320" r="14" fill="#5A4630"/><path d="M120 230 l5 12 12 5 -12 5 -5 12 -5 -12 -12 -5 12 -5z" fill="#F0C93A"/>
           <path d="M404 250 l4 10 10 4 -10 4 -4 10 -4 -10 -10 -4 10 -4z" fill="#F0C93A"/>
  <path d="M242 334 Q256 326 270 334 Q256 366 242 334z" fill="#FFA552"/><path d="M249 350 Q256 360 263 350 Q256 346 249 350z" fill="#E8604C"/>
</svg>